<svg width="500" height="500" viewBox="0 0 500 500" fill="none" xmlns="http://www.w3.org/2000/svg">
<rect width="500" height="500" fill="#EDEDED"/>
<path d="M252.353 247.648C218.576 213.872 218.576 159.109 252.353 125.333C286.129 91.556 340.892 91.556 374.668 125.333C408.445 159.109 408.445 213.872 374.668 247.648C340.892 281.425 286.129 281.425 252.353 247.648Z" fill="#1185FE"/>
<path d="M125.332 374.668C91.5559 340.891 91.5559 286.129 125.332 252.352C159.109 218.575 213.872 218.575 247.648 252.352C281.425 286.129 281.425 340.891 247.648 374.668C213.872 408.444 159.109 408.444 125.332 374.668Z" fill="#1185FE"/>
<path d="M252.353 252.352C286.129 218.575 340.892 218.575 374.668 252.352C408.445 286.128 408.445 340.891 374.668 374.668C340.892 408.444 286.129 408.444 252.353 374.668C218.576 340.891 218.576 286.128 252.353 252.352Z" fill="#1185FE"/>
<path d="M125.333 125.332C159.109 91.5559 213.872 91.5559 247.648 125.332C281.425 159.109 281.425 213.872 247.648 247.648C213.872 281.425 159.109 281.425 125.332 247.648C91.556 213.872 91.556 159.109 125.333 125.332Z" fill="#1185FE"/>
<circle cx="250.461" cy="250.462" r="86.4902" transform="rotate(180 250.461 250.462)" fill="white"/>
</svg>
